name C:\Users\u0101727\Documents\MyRepositories\upper-imu-dc\Results\main_tracking\Case_23\kinematics.mot
datacolumns 10
datarows 23
range 1.12000000 1.34000000
endheader 
time	clav_prot	clav_elev	scapula_abduction	scapula_elevation	scapula_upward_rot	scapula_winging	plane_elv	shoulder_elv	axial_rot	
          1.12000000	        -17.23339117	          4.86252253	         -2.85511404	          1.90212054	         17.98833920	          1.80458883	         -6.52908485	         13.46719595	         30.09627396	
          1.13000000	        -17.37687098	          5.28001231	         -2.91385127	          2.06723839	         18.53857989	          1.64407558	         -6.10641599	         13.17448834	         30.10930226	
          1.14000000	        -17.61078803	          5.67951089	         -3.08731106	          2.19889450	         19.15272562	          1.47983508	         -5.68190648	         12.84721686	         30.09903318	
          1.15000000	        -17.96552397	          6.04419682	         -3.41471656	          2.28036118	         19.84268691	          1.30957111	         -5.25418573	         12.47609986	         30.03678741	
          1.16000000	        -18.46696192	          6.35613340	         -3.92864210	          2.29559285	         20.61553109	          1.12915927	         -4.82674333	         12.05474850	         29.90172109	
          1.17000000	        -19.12152593	          6.60551897	         -4.63836997	          2.23931806	         21.46339952	          0.93395637	         -4.40820295	         11.58599642	         29.68624910	
          1.18000000	        -19.88992153	          6.80727441	         -5.50032683	          2.13409386	         22.34903608	          0.72280822	         -4.00933938	         11.09063375	         29.39821013	
          1.19000000	        -20.61919731	          7.02582875	         -6.32572405	          2.05768681	         23.18221163	          0.50686719	         -3.63585800	         10.62232179	         29.05944628	
          1.20000000	        -20.63613583	          7.34196610	         -6.05116903	          2.14598395	         23.79688395	          0.31162826	         -3.27905143	         10.28613613	         28.69815903	
          1.21000000	        -20.30825849	          7.82400902	         -5.40833838	          2.43820037	         24.15070652	          0.18038616	         -2.93893965	         10.10186228	         28.33840622	
          1.22000000	        -19.81503513	          8.41627707	         -4.59825680	          2.84869419	         24.38482150	          0.08069204	         -2.62041662	          9.97495703	         28.00262302	
          1.23000000	        -19.33617153	          9.01907719	         -3.82394421	          3.26744933	         24.61095399	         -0.01065955	         -2.30765586	          9.83542102	         27.69816125	
          1.24000000	        -18.96704164	          9.58117411	         -3.19642490	          3.63840989	         24.88613995	         -0.10472875	         -1.97370127	          9.64802081	         27.42528244	
          1.25000000	        -18.72982775	         10.08874010	         -2.73695472	          3.94620318	         25.22940024	         -0.20595927	         -1.58623816	          9.40180108	         27.17493955	
          1.26000000	        -18.61568267	         10.54861148	         -2.43458299	          4.19745752	         25.63801651	         -0.31446006	         -1.11375316	          9.10056259	         26.92968548	
          1.27000000	        -18.60357100	         10.97587503	         -2.26759712	          4.40800069	         26.09825209	         -0.42778199	         -0.52790247	          8.75643077	         26.66465479	
          1.28000000	        -18.67062992	         11.38643541	         -2.21383145	          4.59495661	         26.59310236	         -0.54247594	          0.19457753	          8.38442452	         26.34963606	
          1.29000000	        -18.79738787	         11.79317767	         -2.25524188	          4.77255276	         27.10695620	         -0.65519760	          1.06984869	          7.99878632	         25.95210953	
          1.30000000	        -18.96965670	         12.20430843	         -2.37891422	          4.95030992	         27.62786332	         -0.76342770	          2.10485526	          7.61088600	         25.44122231	
          1.31000000	        -19.17828367	         12.62278170	         -2.57579283	          5.13257249	         28.14801624	         -0.86587963	          3.29571422	          7.22846505	         24.79235294	
          1.32000000	        -19.41763258	         13.04600658	         -2.83810481	          5.31861730	         28.66287380	         -0.96262750	          4.62726291	          6.85609220	         23.99159673	
          1.33000000	        -19.68332943	         13.46538444	         -3.15617615	          5.50292394	         29.16910571	         -1.05491834	          6.07408176	          6.49687478	         23.03925402	
          1.34000000	        -19.96952364	         13.86576124	         -3.51519779	          5.67564181	         29.66139821	         -1.14454057	          7.60280161	          6.15547757	         21.95153579	
